<?xml version="1.0" encoding="utf-8"?>
<!-- Generator: Adobe Illustrator 16.0.0, SVG Export Plug-In . SVG Version: 6.00 Build 0)  -->
<!DOCTYPE svg PUBLIC "-//W3C//DTD SVG 1.1//EN" "http://www.w3.org/Graphics/SVG/1.1/DTD/svg11.dtd">
<svg version="1.1" id="Слой_1" xmlns="http://www.w3.org/2000/svg" xmlns:xlink="http://www.w3.org/1999/xlink" x="0px" y="0px"
	 width="25px" height="25px" viewBox="243.5 160.5 25 25" enable-background="new 243.5 160.5 25 25" xml:space="preserve">
<g id="_x23_000000ff">
	<path fill="#FFFFFF" d="M247.852,161.183c0.723-0.343,1.656-0.201,2.214,0.383c1.984,1.973,3.958,3.957,5.939,5.934
		c1.981-1.974,3.955-3.958,5.938-5.93c0.562-0.589,1.503-0.732,2.228-0.382c0.338,0.161,0.594,0.444,0.857,0.703
		c0.815,0.824,1.646,1.633,2.454,2.463c0.719,0.724,0.692,2.012-0.047,2.712c-1.971,1.983-3.956,3.953-5.93,5.934
		c1.975,1.981,3.959,3.954,5.933,5.936c0.582,0.563,0.733,1.498,0.382,2.223c-0.161,0.339-0.44,0.598-0.7,0.859
		c-0.826,0.817-1.64,1.647-2.471,2.459c-0.719,0.716-2.008,0.69-2.703-0.045c-1.984-1.973-3.956-3.957-5.939-5.932
		c-1.986,1.976-3.959,3.963-5.945,5.937c-0.56,0.583-1.493,0.722-2.214,0.378c-0.34-0.161-0.596-0.445-0.859-0.704
		c-0.816-0.823-1.646-1.634-2.457-2.463c-0.718-0.72-0.693-2.01,0.041-2.709c1.974-1.983,3.959-3.958,5.935-5.939
		c-1.976-1.981-3.961-3.955-5.937-5.94c-0.733-0.699-0.757-1.987-0.041-2.707c0.812-0.831,1.644-1.642,2.462-2.467
		C247.256,161.625,247.512,161.342,247.852,161.183z"/>
</g>
</svg>
