<?xml version="1.0" encoding="utf-8"?>
<!-- Generator: Adobe Illustrator 16.0.0, SVG Export Plug-In . SVG Version: 6.00 Build 0)  -->
<!DOCTYPE svg PUBLIC "-//W3C//DTD SVG 1.1//EN" "http://www.w3.org/Graphics/SVG/1.1/DTD/svg11.dtd">
<svg version="1.1" id="Слой_1" xmlns="http://www.w3.org/2000/svg" xmlns:xlink="http://www.w3.org/1999/xlink" x="0px" y="0px"
	 width="134px" height="95px" viewBox="573 308 134 95" enable-background="new 573 308 134 95" xml:space="preserve">
<g>
	<path d="M688.077,326.858c0.062-2.164-0.554-4.393-2.021-6.026c-1.661-2.028-4.256-3.182-6.874-3.098
		c-26.296,0.003-52.592-0.031-78.889,0.017c-3.487,0.016-6.735,2.464-7.885,5.721c-0.58,1.623-0.478,3.373-0.488,5.065
		c0.008,18.619-0.006,37.24,0.008,55.86c-0.062,2.353,0.83,4.714,2.544,6.345c1.631,1.703,3.99,2.57,6.333,2.524
		c25.568,0.014,51.136,0,76.704,0.008c1.543-0.003,3.127,0.058,4.615-0.426c3.439-1.099,6.021-4.532,5.938-8.174
		C688.096,365.402,688.069,346.131,688.077,326.858z M681.211,341.896c-0.011,14.168,0.005,28.333-0.009,42.501
		c0.139,1.145-0.889,2.146-2.027,2c-26.03,0.012-52.059-0.004-78.088,0.008c-0.614-0.008-1.314-0.023-1.759-0.516
		c-0.512-0.444-0.534-1.165-0.542-1.79c0.02-14.626-0.012-29.252,0.016-43.876c-0.063-0.895,0.623-1.786,1.534-1.851
		c8.311-0.091,16.627-0.013,24.938-0.039c17.98,0.003,35.957-0.005,53.937,0.003c0.77-0.047,1.578,0.353,1.86,1.103
		C681.289,340.237,681.193,341.079,681.211,341.896z"/>
	<path d="M612.52,347.156c0.087-0.958-0.664-1.945-1.664-1.926c-1.364-0.022-2.762-0.147-4.109,0.106
		c-1.297,0.517-1.098,2.095-1.098,3.22c0.072,1.042-0.266,2.373,0.684,3.121c0.895,0.642,2.078,0.316,3.106,0.402
		c1.055,0.034,2.492,0.1,2.948-1.103C612.659,349.726,612.501,348.425,612.52,347.156z"/>
	<path d="M619.385,348.542c0.079,0.979-0.236,2.148,0.481,2.948c0.439,0.523,1.15,0.592,1.787,0.583
		c16.863-0.005,33.729-0.002,50.594-0.002c0.773,0.042,1.628-0.283,1.933-1.051c0.282-0.886,0.126-1.836,0.172-2.75
		c-0.042-0.836,0.144-1.82-0.481-2.493c-0.386-0.492-1.039-0.575-1.62-0.575c-16.49-0.006-32.984,0.008-49.477-0.006
		c-0.792,0.022-1.62-0.086-2.378,0.178C619.172,345.938,619.406,347.445,619.385,348.542z"/>
	<path d="M610.859,358.955c-1.184-0.052-2.376-0.057-3.559,0c-0.864,0.026-1.609,0.793-1.618,1.657
		c-0.053,1.156-0.047,2.314-0.002,3.471c0.008,0.818,0.658,1.627,1.5,1.672c1.226,0.083,2.457,0.067,3.682,0.015
		c0.878,0.01,1.639-0.783,1.639-1.653c0.053-1.205,0.064-2.417-0.014-3.624C612.446,359.662,611.681,358.971,610.859,358.955z"/>
	<path d="M620.792,365.736c0.933,0.119,1.875,0.05,2.814,0.061c16.113,0.003,32.226-0.005,48.338,0.005
		c0.673-0.007,1.47,0.004,1.935-0.58c0.613-0.68,0.431-1.658,0.473-2.492c-0.046-0.907,0.104-1.851-0.164-2.732
		c-0.305-0.769-1.153-1.116-1.932-1.069c-16.862-0.002-33.726,0.007-50.586-0.002c-0.333-0.003-0.664,0.024-0.991,0.089
		c-0.654,0.173-1.201,0.771-1.242,1.459c-0.081,1.212-0.067,2.429-0.014,3.639C619.425,364.881,620.02,365.631,620.792,365.736z"/>
	<path d="M612.468,374.089c-0.114-0.903-1.045-1.489-1.915-1.414c-1.272,0.022-2.581-0.147-3.829,0.144
		c-1.297,0.536-1.064,2.12-1.076,3.254c0.07,0.98-0.233,2.177,0.548,2.95c0.792,0.753,1.987,0.448,2.973,0.52
		c0.964-0.061,2.147,0.218,2.882-0.58c0.55-0.542,0.455-1.367,0.483-2.07C612.52,375.958,612.581,375.019,612.468,374.089z"/>
	<path d="M672.231,372.666c-16.481-0.004-32.964,0.009-49.444-0.006c-0.806,0.026-1.653-0.099-2.42,0.199
		c-0.564,0.289-0.959,0.885-0.948,1.529c-0.047,1.203-0.067,2.414,0.02,3.619c0.064,0.963,1.045,1.602,1.962,1.521
		c16.938,0.013,33.879,0.002,50.816,0.006c0.92,0.088,1.945-0.454,2.067-1.436c0.11-1.313,0.089-2.646,0.009-3.961
		C674.181,373.154,673.161,372.562,672.231,372.666z"/>
</g>
</svg>
