<?xml version="1.0" encoding="utf-8"?>
<!-- Generator: Adobe Illustrator 16.0.0, SVG Export Plug-In . SVG Version: 6.00 Build 0)  -->
<!DOCTYPE svg PUBLIC "-//W3C//DTD SVG 1.1//EN" "http://www.w3.org/Graphics/SVG/1.1/DTD/svg11.dtd">
<svg version="1.1" id="Слой_1" xmlns="http://www.w3.org/2000/svg" xmlns:xlink="http://www.w3.org/1999/xlink" x="0px" y="0px"
	 width="134px" height="95px" viewBox="573 308 134 95" enable-background="new 573 308 134 95" xml:space="preserve">
<g id="_x23_000000ff">
	<path d="M624.811,314.319c8.027-0.536,16.207,0.523,23.708,3.492c7.311,2.911,14.191,7.678,18.268,14.553
		c3.23,5.338,4.152,12.01,2.448,18.018c-2.074,7.382-7.753,13.224-14.218,17.062c-10.921,6.475-24.232,8.037-36.622,5.908
		c-6.422,4.405-13.826,7.495-21.583,8.43c-1.43,0.012-2.382-1.801-1.673-3.003c0.556-0.931,1.387-1.649,2.093-2.461
		c2.366-2.513,4.478-5.32,5.765-8.548c-3.861-2.34-7.487-5.168-10.221-8.791c-3.054-3.836-5.099-8.573-5.317-13.503
		c-0.371-4.804,1.013-9.659,3.577-13.708c3.708-5.904,9.519-10.224,15.81-13.063C612.494,316.15,618.63,314.705,624.811,314.319
		 M619.594,322.529c-7.182,1.451-14.315,4.462-19.45,9.829c-2.845,2.963-4.989,6.811-5.175,10.981
		c-0.392,4.94,2.093,9.659,5.503,13.077c3.386,3.523,7.839,5.665,11.985,8.126c-0.681,1.64-1.375,3.279-2.053,4.922
		c2.111-1.305,4.213-2.625,6.215-4.098c5.78,1.178,11.727,1.779,17.61,1.077c7.504-0.87,14.991-3.44,20.876-8.28
		c2.885-2.477,5.443-5.521,6.641-9.181c1.424-4.143,0.84-8.87-1.399-12.618c-2.436-4.158-6.284-7.328-10.477-9.616
		C640.681,321.835,629.776,320.67,619.594,322.529z"/>
	<path d="M676.26,335.293c2.839,1.667,5.616,3.495,7.951,5.832c3.879,3.689,6.915,8.432,7.962,13.734
		c0.891,4.523,0.395,9.323-1.503,13.533c-2.735,6.199-7.9,11.001-13.65,14.419c1.3,3.259,3.451,6.075,5.832,8.615
		c0.666,0.755,1.424,1.436,1.966,2.288c0.802,1.18-0.149,3.088-1.592,3.1c-7.763-0.929-15.188-4.01-21.607-8.436
		c-5.433,0.888-10.978,1.213-16.46,0.618c-7.647-0.728-15.143-3.213-21.583-7.42c10.343,0.794,20.935-0.782,30.389-5.129
		c7.607-3.477,14.505-8.901,18.922-16.08C677.571,353.019,678.842,343.625,676.26,335.293z"/>
</g>
</svg>
