<?xml version="1.0" encoding="utf-8"?>
<!-- Generator: Adobe Illustrator 16.0.0, SVG Export Plug-In . SVG Version: 6.00 Build 0)  -->
<!DOCTYPE svg PUBLIC "-//W3C//DTD SVG 1.1//EN" "http://www.w3.org/Graphics/SVG/1.1/DTD/svg11.dtd">
<svg version="1.1" id="Слой_1" xmlns="http://www.w3.org/2000/svg" xmlns:xlink="http://www.w3.org/1999/xlink" x="0px" y="0px"
	 width="134px" height="95px" viewBox="573 308 134 95" enable-background="new 573 308 134 95" xml:space="preserve">
<g id="_x23_3d3d3dff">
	<path d="M637.493,320.538c4.827-0.195,9.674,0.231,14.402,1.217c8.109,1.678,15.833,4.933,22.974,9.09
		c7.916,4.625,15.165,10.341,21.737,16.721c2.582,2.522,5.07,5.145,7.37,7.927c-2.29,2.954-4.818,5.716-7.45,8.367
		c-5.561,5.557-11.688,10.565-18.344,14.756c-3.773,2.37-7.717,4.473-11.814,6.226c-6.365,2.727-13.117,4.595-20.013,5.309
		c-4.414,0.461-8.883,0.48-13.287-0.099c-8.517-1.095-16.687-4.122-24.242-8.136c-7.238-3.847-13.957-8.615-20.218-13.892
		c-4.567-3.888-8.93-8.03-12.903-12.528c2.288-2.966,4.828-5.73,7.466-8.388c5.557-5.554,11.682-10.559,18.335-14.747
		c6.047-3.797,12.545-6.914,19.385-8.992C626.275,321.73,631.866,320.745,637.493,320.538 M637.745,334.704
		c-3.036,0.292-6.008,1.233-8.651,2.757c-3.638,2.081-6.648,5.243-8.539,8.982c-2.287,4.462-2.915,9.734-1.792,14.617
		c0.857,3.783,2.77,7.317,5.457,10.113c2.85,2.99,6.575,5.138,10.596,6.086c4.249,1.015,8.806,0.712,12.873-0.883
		c3.572-1.387,6.754-3.752,9.125-6.762c2.429-3.064,3.999-6.802,4.474-10.683c0.582-4.572-0.337-9.328-2.62-13.335
		c-1.908-3.388-4.752-6.241-8.131-8.163C646.694,335.224,642.156,334.273,637.745,334.704z"/>
</g>
<g id="_x23_447ce3ff">
	<path d="M639.167,346.72c1.868-0.133,3.774,0.296,5.399,1.231c1.717,0.981,3.117,2.508,3.937,4.309
		c0.811,1.756,1.056,3.762,0.712,5.664c-0.297,1.663-1.051,3.24-2.156,4.518c-1.23,1.433-2.896,2.49-4.72,2.979
		c-1.951,0.533-4.071,0.422-5.956-0.313c-1.856-0.719-3.47-2.04-4.549-3.713c-1.025-1.577-1.561-3.465-1.521-5.345
		c0.03-2.165,0.834-4.306,2.234-5.958C634.179,348.136,636.624,346.885,639.167,346.72z"/>
</g>
</svg>
