<?xml version="1.0" encoding="utf-8"?>
<!-- Generator: Adobe Illustrator 16.0.0, SVG Export Plug-In . SVG Version: 6.00 Build 0)  -->
<!DOCTYPE svg PUBLIC "-//W3C//DTD SVG 1.1//EN" "http://www.w3.org/Graphics/SVG/1.1/DTD/svg11.dtd">
<svg version="1.1" id="Слой_1" xmlns="http://www.w3.org/2000/svg" xmlns:xlink="http://www.w3.org/1999/xlink" x="0px" y="0px"
	 width="61px" height="61px" viewBox="225.5 142.5 61 61" enable-background="new 225.5 142.5 61 61" xml:space="preserve">
<g id="_x23_000000ff">
	<path d="M253.601,143.039c6.331-0.504,12.833,0.975,18.214,4.382c5.519,3.366,9.84,8.602,12.203,14.61
		c2.081,5.262,2.521,11.111,1.516,16.66c-1.191,6.386-4.591,12.313-9.408,16.654c-4.354,3.901-9.842,6.565-15.644,7.375
		c-6.393,0.924-13.109-0.131-18.782-3.27c-5.705-3.063-10.338-8.027-13.038-13.907c-2.641-5.63-3.299-12.091-2.207-18.188
		c1.244-6.741,4.947-12.981,10.192-17.38C241.397,145.98,247.397,143.461,253.601,143.039 M253.925,157.533
		c-5.537,5.543-11.082,11.083-16.625,16.622c-0.693,0.689-1.548,1.438-1.54,2.505c-0.067,0.858,0.448,1.607,1.034,2.18
		c1.151,1.139,2.29,2.291,3.441,3.43c0.567,0.576,1.33,1.036,2.171,0.942c0.971-0.039,1.666-0.79,2.306-1.431
		c3.757-3.767,7.525-7.526,11.289-11.286c3.899,3.893,7.799,7.789,11.692,11.689c0.479,0.451,1.012,0.92,1.694,1.001
		c0.843,0.167,1.683-0.221,2.268-0.813c1.136-1.099,2.231-2.236,3.362-3.34c0.607-0.594,1.238-1.311,1.224-2.212
		c0.059-0.808-0.395-1.517-0.939-2.062c-5.736-5.74-11.48-11.472-17.213-17.214c-0.56-0.559-1.258-1.076-2.09-1.036
		C255.171,156.472,254.48,156.98,253.925,157.533z"/>
</g>
</svg>
