<?xml version="1.0" encoding="utf-8"?>
<!-- Generator: Adobe Illustrator 16.0.0, SVG Export Plug-In . SVG Version: 6.00 Build 0)  -->
<!DOCTYPE svg PUBLIC "-//W3C//DTD SVG 1.1//EN" "http://www.w3.org/Graphics/SVG/1.1/DTD/svg11.dtd">
<svg version="1.1" id="Слой_1" xmlns="http://www.w3.org/2000/svg" xmlns:xlink="http://www.w3.org/1999/xlink" x="0px" y="0px"
	 width="40px" height="40px" viewBox="0 0 40 40" enable-background="new 0 0 40 40" xml:space="preserve">
<g id="_x23_000000ff">
	<path fill="#FFFFFF" d="M6.194,7.522c9.048-0.036,18.102-0.002,27.153-0.017c0.381,0.002,0.805,0,1.115,0.249
		c0.365,0.251,0.547,0.694,0.534,1.125c-0.002,0.808,0.016,1.611-0.014,2.419c-0.012,0.561-0.464,1.075-1.021,1.167
		c-0.371,0.061-0.748,0.032-1.118,0.036c-8.627,0-17.258,0-25.888,0c-0.46-0.009-0.971,0.057-1.373-0.219
		c-0.364-0.235-0.577-0.658-0.571-1.086c-0.009-0.806-0.013-1.612,0-2.417C4.999,8.14,5.545,7.545,6.194,7.522z"/>
	<path fill="#FFFFFF" d="M6.189,17.516c2.917-0.035,5.838-0.003,8.759-0.013c6.236,0.002,12.47-0.006,18.708,0.002
		c0.665-0.033,1.301,0.51,1.322,1.188c0.04,0.669,0.004,1.341,0.019,2.013c0,0.455,0.022,0.976-0.312,1.332
		c-0.269,0.339-0.711,0.476-1.131,0.462c-9.069-0.002-18.138,0.004-27.205-0.002c-0.668,0.031-1.307-0.512-1.333-1.188
		c-0.029-0.838-0.015-1.678-0.008-2.515C4.992,18.148,5.537,17.543,6.189,17.516z"/>
	<path fill="#FFFFFF" d="M6.171,27.516c2.818-0.042,5.643-0.005,8.466-0.018c6.167,0,12.333,0.004,18.503,0
		c0.452,0.002,0.965-0.044,1.337,0.264c0.362,0.258,0.53,0.701,0.515,1.137c-0.005,0.807,0.023,1.619-0.016,2.422
		c-0.027,0.67-0.661,1.2-1.319,1.172c-9.107,0.004-18.212,0.004-27.316,0c-0.66,0.028-1.296-0.505-1.323-1.176
		c-0.039-0.671,0-1.344-0.017-2.019c0.006-0.413-0.032-0.873,0.225-1.226C5.436,27.755,5.788,27.542,6.171,27.516z"/>
</g>
</svg>
