<?xml version="1.0" encoding="utf-8"?>
<!-- Generator: Adobe Illustrator 16.0.0, SVG Export Plug-In . SVG Version: 6.00 Build 0)  -->
<!DOCTYPE svg PUBLIC "-//W3C//DTD SVG 1.1//EN" "http://www.w3.org/Graphics/SVG/1.1/DTD/svg11.dtd">
<svg version="1.1" id="Слой_1" xmlns="http://www.w3.org/2000/svg" xmlns:xlink="http://www.w3.org/1999/xlink" x="0px" y="0px"
	 width="200px" height="45px" viewBox="252.5 67.5 200 45" enable-background="new 252.5 67.5 200 45" xml:space="preserve">
<g id="_x23_ffffffff">
	<path fill="#FFFFFF" d="M311.488,79.077c3.746-1.45,7.879-1.968,11.847-1.269c5.139,0.863,9.833,3.455,13.858,6.69
		c1.76,1.465,3.487,2.991,4.958,4.755c0.189,0.258,0.554,0.452,0.6,0.782c-1.744,2.238-3.848,4.175-6.053,5.952
		c-4.085,3.224-8.897,5.763-14.124,6.368c-4.125,0.524-8.314-0.434-12.063-2.147c-5.175-2.396-9.726-6.012-13.573-10.196
		c1.057-1.349,2.237-2.608,3.497-3.771C303.646,83.22,307.356,80.667,311.488,79.077 M318.532,82.692
		c-2.398,0.423-4.537,2.055-5.573,4.261c-0.773,1.633-0.971,3.539-0.475,5.283c0.538,2.034,1.952,3.812,3.82,4.783
		c2.028,1.086,4.55,1.171,6.656,0.254c3.156-1.307,5.14-4.916,4.508-8.278c-0.396-2.611-2.275-4.912-4.727-5.874
		C321.417,82.571,319.94,82.476,318.532,82.692z"/>
	<path fill="#FFFFFF" d="M385.142,81.116c0.896-0.003,1.791,0.007,2.688-0.005c-0.005,4.404-0.002,8.809,0.005,13.212
		c-0.024,0.358,0.119,0.697,0.36,0.958c0.313,0.013,0.628,0.03,0.943,0.047c-0.071,0.742-0.2,1.476-0.223,2.222
		c-0.916-0.005-1.953,0.139-2.73-0.46c-0.766-0.56-1.073-1.541-1.057-2.457C385.137,90.128,385.128,85.621,385.142,81.116z"/>
	<path fill="#FFFFFF" d="M355.946,81.979c1.859-0.271,3.838,0.133,5.394,1.203c1.738,1.21,2.845,3.214,3.071,5.308
		c0.321,2.405-0.181,5.061-1.888,6.873c-2.693,3.046-7.99,3.064-10.791,0.157c-1.155-1.207-1.861-2.815-2.038-4.471
		c-0.323-2.362,0.225-4.928,1.823-6.748C352.621,82.992,354.254,82.18,355.946,81.979 M355.738,84.732
		c-0.898,0.248-1.708,0.831-2.206,1.621c-0.678,1.001-0.857,2.239-0.897,3.424c0.029,1.552,0.412,3.253,1.657,4.291
		c1.031,0.885,2.482,1.053,3.778,0.83c1.252-0.239,2.332-1.13,2.843-2.29c0.605-1.381,0.668-2.952,0.4-4.422
		c-0.264-1.243-0.92-2.499-2.074-3.119C358.176,84.5,356.889,84.438,355.738,84.732z"/>
	<path fill="#FFFFFF" d="M367.552,86.922c1.114-0.624,2.435-0.603,3.671-0.496c0.727,0.105,1.429,0.349,2.068,0.711
		c-0.064,0.784-0.186,1.561-0.226,2.348c-1.04-0.709-2.359-1.092-3.607-0.798c-1.105,0.31-1.73,1.458-1.833,2.538
		c-0.056,0.79-0.073,1.613,0.208,2.366c0.32,0.942,1.202,1.745,2.236,1.726c1.071,0.083,2.12-0.296,3.002-0.882
		c0.035,0.782,0.15,1.556,0.231,2.335c-1.259,0.778-2.797,0.88-4.236,0.73c-1.372-0.212-2.667-1.015-3.387-2.216
		c-0.822-1.341-1.041-3.003-0.775-4.537C365.158,89.168,366.083,87.635,367.552,86.922z"/>
	<path fill="#FFFFFF" d="M400.628,88.2c0.517-1.016,1.599-1.645,2.705-1.79c1.424-0.129,2.912,0.018,4.194,0.683
		c0.139,0.774-0.137,1.595-0.145,2.39c-0.913-0.806-2.155-1.278-3.377-1.17c-0.493,0.069-1.031,0.252-1.292,0.708
		c-0.129,0.405-0.075,0.858,0.177,1.205c1.383,0.905,3.289,0.767,4.461,2.039c0.964,1.199,0.972,3.174-0.118,4.299
		c-0.82,0.769-1.999,0.973-3.088,0.986c-1.362,0.023-2.832-0.033-4.014-0.803c0.152-0.763,0.158-1.543,0.265-2.313
		c0.963,0.656,2.116,1.037,3.278,1.09c0.499-0.009,1.082-0.034,1.43-0.449c0.302-0.328,0.229-0.802,0.2-1.206
		c-0.562-0.679-1.473-0.806-2.254-1.086c-0.876-0.314-1.849-0.645-2.377-1.47C400.142,90.372,400.157,89.164,400.628,88.2z"/>
	<path fill="#FFFFFF" d="M374.08,86.554c0.896,0.003,1.793,0.006,2.69-0.003c-0.009,1.942-0.002,3.884,0.001,5.825
		c0.005,0.851,0.08,1.798,0.69,2.451c1.015,0.807,2.604,0.535,3.437-0.414c0-2.62,0.012-5.242,0-7.862
		c0.901,0.009,1.803,0.009,2.707,0c-0.012,3.602,0.001,7.203,0.001,10.807c-0.85-0.006-1.698-0.002-2.547-0.002
		c-0.003-0.219-0.004-0.438-0.004-0.657c-1.119,0.94-2.694,1.034-4.055,0.666c-0.82-0.236-1.598-0.723-2.06-1.455
		c-0.668-0.99-0.863-2.215-0.857-3.388C374.064,90.531,374.081,88.543,374.08,86.554z"/>
	<path fill="#FFFFFF" d="M389.654,86.552c0.902,0.004,1.804,0.008,2.705,0c-0.013,2.045-0.003,4.091-0.002,6.136
		c0.052,0.868,0.222,1.917,1.065,2.377c1.006,0.483,2.354,0.209,3.059-0.667c0.024-2.614,0.007-5.23,0.011-7.845
		c0.895,0.003,1.787,0.006,2.683-0.001c0.009,3.602,0.003,7.204,0.003,10.807c-0.84-0.014-1.681,0.005-2.52-0.012
		c-0.007-0.153-0.023-0.464-0.031-0.617c-1.165,0.938-2.784,1.011-4.165,0.588c-0.987-0.29-1.822-1.04-2.241-1.976
		c-0.391-0.824-0.51-1.743-0.56-2.645C389.645,90.65,389.668,88.601,389.654,86.552z"/>
	<path fill="#FFFFFF" d="M317.94,87.454c0.884-0.577,2.057-0.833,3.061-0.424c1.721,0.529,2.751,2.613,2.115,4.299
		c-0.222,0.661-0.643,1.266-1.212,1.672c-1.493,1.146-3.897,0.713-4.861-0.918C316.048,90.621,316.486,88.446,317.94,87.454z"/>
</g>
</svg>
